%TF.GenerationSoftware,KiCad,Pcbnew,7.0.7*%
%TF.CreationDate,2023-09-25T23:21:08+02:00*%
%TF.ProjectId,beginner_led_pcb,62656769-6e6e-4657-925f-6c65645f7063,rev?*%
%TF.SameCoordinates,Original*%
%TF.FileFunction,Soldermask,Top*%
%TF.FilePolarity,Negative*%
%FSLAX46Y46*%
G04 Gerber Fmt 4.6, Leading zero omitted, Abs format (unit mm)*
G04 Created by KiCad (PCBNEW 7.0.7) date 2023-09-25 23:21:08*
%MOMM*%
%LPD*%
G01*
G04 APERTURE LIST*
G04 Aperture macros list*
%AMRoundRect*
0 Rectangle with rounded corners*
0 $1 Rounding radius*
0 $2 $3 $4 $5 $6 $7 $8 $9 X,Y pos of 4 corners*
0 Add a 4 corners polygon primitive as box body*
4,1,4,$2,$3,$4,$5,$6,$7,$8,$9,$2,$3,0*
0 Add four circle primitives for the rounded corners*
1,1,$1+$1,$2,$3*
1,1,$1+$1,$4,$5*
1,1,$1+$1,$6,$7*
1,1,$1+$1,$8,$9*
0 Add four rect primitives between the rounded corners*
20,1,$1+$1,$2,$3,$4,$5,0*
20,1,$1+$1,$4,$5,$6,$7,0*
20,1,$1+$1,$6,$7,$8,$9,0*
20,1,$1+$1,$8,$9,$2,$3,0*%
G04 Aperture macros list end*
%ADD10RoundRect,0.200000X0.200000X0.275000X-0.200000X0.275000X-0.200000X-0.275000X0.200000X-0.275000X0*%
%ADD11RoundRect,0.218750X-0.218750X-0.381250X0.218750X-0.381250X0.218750X0.381250X-0.218750X0.381250X0*%
%ADD12RoundRect,0.147500X0.147500X0.172500X-0.147500X0.172500X-0.147500X-0.172500X0.147500X-0.172500X0*%
%ADD13R,0.700000X0.700000*%
%ADD14RoundRect,0.250000X0.250000X0.475000X-0.250000X0.475000X-0.250000X-0.475000X0.250000X-0.475000X0*%
%ADD15RoundRect,0.140000X0.170000X-0.140000X0.170000X0.140000X-0.170000X0.140000X-0.170000X-0.140000X0*%
%ADD16R,1.700000X1.700000*%
%ADD17O,1.700000X1.700000*%
G04 APERTURE END LIST*
D10*
%TO.C,R1*%
X204330000Y-108310000D03*
X202680000Y-108310000D03*
%TD*%
D11*
%TO.C,FB1*%
X202400000Y-111800000D03*
X204525000Y-111800000D03*
%TD*%
D12*
%TO.C,PWR*%
X204020000Y-107060000D03*
X203050000Y-107060000D03*
%TD*%
D13*
%TO.C,D11*%
X249455000Y-111110000D03*
X249455000Y-110010000D03*
X247625000Y-110010000D03*
X247625000Y-111110000D03*
%TD*%
%TO.C,D10*%
X245390000Y-111110000D03*
X245390000Y-110010000D03*
X243560000Y-110010000D03*
X243560000Y-111110000D03*
%TD*%
%TO.C,D9*%
X241340000Y-111110000D03*
X241340000Y-110010000D03*
X239510000Y-110010000D03*
X239510000Y-111110000D03*
%TD*%
%TO.C,D8*%
X237280000Y-111110000D03*
X237280000Y-110010000D03*
X235450000Y-110010000D03*
X235450000Y-111110000D03*
%TD*%
%TO.C,D7*%
X233230000Y-111110000D03*
X233230000Y-110010000D03*
X231400000Y-110010000D03*
X231400000Y-111110000D03*
%TD*%
%TO.C,D6*%
X229180000Y-111110000D03*
X229180000Y-110010000D03*
X227350000Y-110010000D03*
X227350000Y-111110000D03*
%TD*%
%TO.C,D5*%
X223300000Y-111110000D03*
X223300000Y-110010000D03*
X225130000Y-110010000D03*
X225130000Y-111110000D03*
%TD*%
%TO.C,D4*%
X221080000Y-111110000D03*
X221080000Y-110010000D03*
X219250000Y-110010000D03*
X219250000Y-111110000D03*
%TD*%
%TO.C,D3*%
X217040000Y-111110000D03*
X217040000Y-110010000D03*
X215210000Y-110010000D03*
X215210000Y-111110000D03*
%TD*%
%TO.C,D2*%
X211150000Y-111110000D03*
X211150000Y-110010000D03*
X212980000Y-110010000D03*
X212980000Y-111110000D03*
%TD*%
%TO.C,D1*%
X208930000Y-111110000D03*
X208930000Y-110010000D03*
X207100000Y-110010000D03*
X207100000Y-111110000D03*
%TD*%
D14*
%TO.C,C12*%
X204400000Y-113700000D03*
X202500000Y-113700000D03*
%TD*%
D15*
%TO.C,C11*%
X246510000Y-111140000D03*
X246510000Y-110180000D03*
%TD*%
%TO.C,C10*%
X242450000Y-111145000D03*
X242450000Y-110185000D03*
%TD*%
%TO.C,C9*%
X238400000Y-111135000D03*
X238400000Y-110175000D03*
%TD*%
%TO.C,C8*%
X234340000Y-111135000D03*
X234340000Y-110175000D03*
%TD*%
%TO.C,C7*%
X230290000Y-111135000D03*
X230290000Y-110175000D03*
%TD*%
%TO.C,C6*%
X226240000Y-111135000D03*
X226240000Y-110175000D03*
%TD*%
%TO.C,C5*%
X222190000Y-110175000D03*
X222190000Y-111135000D03*
%TD*%
%TO.C,C4*%
X218150000Y-111130000D03*
X218150000Y-110170000D03*
%TD*%
%TO.C,C3*%
X214090000Y-111135000D03*
X214090000Y-110175000D03*
%TD*%
%TO.C,C2*%
X210025000Y-111160000D03*
X210025000Y-110200000D03*
%TD*%
%TO.C,C1*%
X206000000Y-111110000D03*
X206000000Y-110150000D03*
%TD*%
D16*
%TO.C,J1*%
X198700000Y-113140000D03*
D17*
X198700000Y-110600000D03*
X198700000Y-108060000D03*
%TD*%
M02*
