%TF.GenerationSoftware,KiCad,Pcbnew,7.0.7*%
%TF.CreationDate,2023-09-25T07:31:56+02:00*%
%TF.ProjectId,beginner_led_pcb,62656769-6e6e-4657-925f-6c65645f7063,rev?*%
%TF.SameCoordinates,Original*%
%TF.FileFunction,Legend,Top*%
%TF.FilePolarity,Positive*%
%FSLAX46Y46*%
G04 Gerber Fmt 4.6, Leading zero omitted, Abs format (unit mm)*
G04 Created by KiCad (PCBNEW 7.0.7) date 2023-09-25 07:31:56*
%MOMM*%
%LPD*%
G01*
G04 APERTURE LIST*
%ADD10C,0.100000*%
%ADD11C,0.150000*%
%ADD12C,0.080000*%
%ADD13C,0.120000*%
G04 APERTURE END LIST*
D10*
X200674990Y-108564687D02*
X200636895Y-108640877D01*
X200636895Y-108640877D02*
X200636895Y-108755163D01*
X200636895Y-108755163D02*
X200674990Y-108869449D01*
X200674990Y-108869449D02*
X200751180Y-108945639D01*
X200751180Y-108945639D02*
X200827371Y-108983734D01*
X200827371Y-108983734D02*
X200979752Y-109021830D01*
X200979752Y-109021830D02*
X201094038Y-109021830D01*
X201094038Y-109021830D02*
X201246419Y-108983734D01*
X201246419Y-108983734D02*
X201322609Y-108945639D01*
X201322609Y-108945639D02*
X201398800Y-108869449D01*
X201398800Y-108869449D02*
X201436895Y-108755163D01*
X201436895Y-108755163D02*
X201436895Y-108678972D01*
X201436895Y-108678972D02*
X201398800Y-108564687D01*
X201398800Y-108564687D02*
X201360704Y-108526591D01*
X201360704Y-108526591D02*
X201094038Y-108526591D01*
X201094038Y-108526591D02*
X201094038Y-108678972D01*
X201436895Y-108183734D02*
X200636895Y-108183734D01*
X200636895Y-108183734D02*
X201436895Y-107726591D01*
X201436895Y-107726591D02*
X200636895Y-107726591D01*
X201436895Y-107345639D02*
X200636895Y-107345639D01*
X200636895Y-107345639D02*
X200636895Y-107155163D01*
X200636895Y-107155163D02*
X200674990Y-107040877D01*
X200674990Y-107040877D02*
X200751180Y-106964687D01*
X200751180Y-106964687D02*
X200827371Y-106926592D01*
X200827371Y-106926592D02*
X200979752Y-106888496D01*
X200979752Y-106888496D02*
X201094038Y-106888496D01*
X201094038Y-106888496D02*
X201246419Y-106926592D01*
X201246419Y-106926592D02*
X201322609Y-106964687D01*
X201322609Y-106964687D02*
X201398800Y-107040877D01*
X201398800Y-107040877D02*
X201436895Y-107155163D01*
X201436895Y-107155163D02*
X201436895Y-107345639D01*
X201436895Y-111193734D02*
X200636895Y-111193734D01*
X200636895Y-111193734D02*
X200636895Y-111003258D01*
X200636895Y-111003258D02*
X200674990Y-110888972D01*
X200674990Y-110888972D02*
X200751180Y-110812782D01*
X200751180Y-110812782D02*
X200827371Y-110774687D01*
X200827371Y-110774687D02*
X200979752Y-110736591D01*
X200979752Y-110736591D02*
X201094038Y-110736591D01*
X201094038Y-110736591D02*
X201246419Y-110774687D01*
X201246419Y-110774687D02*
X201322609Y-110812782D01*
X201322609Y-110812782D02*
X201398800Y-110888972D01*
X201398800Y-110888972D02*
X201436895Y-111003258D01*
X201436895Y-111003258D02*
X201436895Y-111193734D01*
X200636895Y-110241353D02*
X200636895Y-110165163D01*
X200636895Y-110165163D02*
X200674990Y-110088972D01*
X200674990Y-110088972D02*
X200713085Y-110050877D01*
X200713085Y-110050877D02*
X200789276Y-110012782D01*
X200789276Y-110012782D02*
X200941657Y-109974687D01*
X200941657Y-109974687D02*
X201132133Y-109974687D01*
X201132133Y-109974687D02*
X201284514Y-110012782D01*
X201284514Y-110012782D02*
X201360704Y-110050877D01*
X201360704Y-110050877D02*
X201398800Y-110088972D01*
X201398800Y-110088972D02*
X201436895Y-110165163D01*
X201436895Y-110165163D02*
X201436895Y-110241353D01*
X201436895Y-110241353D02*
X201398800Y-110317544D01*
X201398800Y-110317544D02*
X201360704Y-110355639D01*
X201360704Y-110355639D02*
X201284514Y-110393734D01*
X201284514Y-110393734D02*
X201132133Y-110431830D01*
X201132133Y-110431830D02*
X200941657Y-110431830D01*
X200941657Y-110431830D02*
X200789276Y-110393734D01*
X200789276Y-110393734D02*
X200713085Y-110355639D01*
X200713085Y-110355639D02*
X200674990Y-110317544D01*
X200674990Y-110317544D02*
X200636895Y-110241353D01*
D11*
X243186779Y-106719819D02*
X243186779Y-105719819D01*
X243186779Y-105719819D02*
X243758207Y-106719819D01*
X243758207Y-106719819D02*
X243758207Y-105719819D01*
X244615350Y-106672200D02*
X244520112Y-106719819D01*
X244520112Y-106719819D02*
X244329636Y-106719819D01*
X244329636Y-106719819D02*
X244234398Y-106672200D01*
X244234398Y-106672200D02*
X244186779Y-106576961D01*
X244186779Y-106576961D02*
X244186779Y-106196009D01*
X244186779Y-106196009D02*
X244234398Y-106100771D01*
X244234398Y-106100771D02*
X244329636Y-106053152D01*
X244329636Y-106053152D02*
X244520112Y-106053152D01*
X244520112Y-106053152D02*
X244615350Y-106100771D01*
X244615350Y-106100771D02*
X244662969Y-106196009D01*
X244662969Y-106196009D02*
X244662969Y-106291247D01*
X244662969Y-106291247D02*
X244186779Y-106386485D01*
X245234398Y-106719819D02*
X245139160Y-106672200D01*
X245139160Y-106672200D02*
X245091541Y-106624580D01*
X245091541Y-106624580D02*
X245043922Y-106529342D01*
X245043922Y-106529342D02*
X245043922Y-106243628D01*
X245043922Y-106243628D02*
X245091541Y-106148390D01*
X245091541Y-106148390D02*
X245139160Y-106100771D01*
X245139160Y-106100771D02*
X245234398Y-106053152D01*
X245234398Y-106053152D02*
X245377255Y-106053152D01*
X245377255Y-106053152D02*
X245472493Y-106100771D01*
X245472493Y-106100771D02*
X245520112Y-106148390D01*
X245520112Y-106148390D02*
X245567731Y-106243628D01*
X245567731Y-106243628D02*
X245567731Y-106529342D01*
X245567731Y-106529342D02*
X245520112Y-106624580D01*
X245520112Y-106624580D02*
X245472493Y-106672200D01*
X245472493Y-106672200D02*
X245377255Y-106719819D01*
X245377255Y-106719819D02*
X245234398Y-106719819D01*
X245996303Y-106719819D02*
X245996303Y-105719819D01*
X245996303Y-105719819D02*
X246377255Y-105719819D01*
X246377255Y-105719819D02*
X246472493Y-105767438D01*
X246472493Y-105767438D02*
X246520112Y-105815057D01*
X246520112Y-105815057D02*
X246567731Y-105910295D01*
X246567731Y-105910295D02*
X246567731Y-106053152D01*
X246567731Y-106053152D02*
X246520112Y-106148390D01*
X246520112Y-106148390D02*
X246472493Y-106196009D01*
X246472493Y-106196009D02*
X246377255Y-106243628D01*
X246377255Y-106243628D02*
X245996303Y-106243628D01*
X246996303Y-106719819D02*
X246996303Y-106053152D01*
X246996303Y-105719819D02*
X246948684Y-105767438D01*
X246948684Y-105767438D02*
X246996303Y-105815057D01*
X246996303Y-105815057D02*
X247043922Y-105767438D01*
X247043922Y-105767438D02*
X246996303Y-105719819D01*
X246996303Y-105719819D02*
X246996303Y-105815057D01*
X247377255Y-106719819D02*
X247901064Y-106053152D01*
X247377255Y-106053152D02*
X247901064Y-106719819D01*
X248662969Y-106672200D02*
X248567731Y-106719819D01*
X248567731Y-106719819D02*
X248377255Y-106719819D01*
X248377255Y-106719819D02*
X248282017Y-106672200D01*
X248282017Y-106672200D02*
X248234398Y-106576961D01*
X248234398Y-106576961D02*
X248234398Y-106196009D01*
X248234398Y-106196009D02*
X248282017Y-106100771D01*
X248282017Y-106100771D02*
X248377255Y-106053152D01*
X248377255Y-106053152D02*
X248567731Y-106053152D01*
X248567731Y-106053152D02*
X248662969Y-106100771D01*
X248662969Y-106100771D02*
X248710588Y-106196009D01*
X248710588Y-106196009D02*
X248710588Y-106291247D01*
X248710588Y-106291247D02*
X248234398Y-106386485D01*
X249282017Y-106719819D02*
X249186779Y-106672200D01*
X249186779Y-106672200D02*
X249139160Y-106576961D01*
X249139160Y-106576961D02*
X249139160Y-105719819D01*
X249615351Y-106672200D02*
X249710589Y-106719819D01*
X249710589Y-106719819D02*
X249901065Y-106719819D01*
X249901065Y-106719819D02*
X249996303Y-106672200D01*
X249996303Y-106672200D02*
X250043922Y-106576961D01*
X250043922Y-106576961D02*
X250043922Y-106529342D01*
X250043922Y-106529342D02*
X249996303Y-106434104D01*
X249996303Y-106434104D02*
X249901065Y-106386485D01*
X249901065Y-106386485D02*
X249758208Y-106386485D01*
X249758208Y-106386485D02*
X249662970Y-106338866D01*
X249662970Y-106338866D02*
X249615351Y-106243628D01*
X249615351Y-106243628D02*
X249615351Y-106196009D01*
X249615351Y-106196009D02*
X249662970Y-106100771D01*
X249662970Y-106100771D02*
X249758208Y-106053152D01*
X249758208Y-106053152D02*
X249901065Y-106053152D01*
X249901065Y-106053152D02*
X249996303Y-106100771D01*
D10*
X200636895Y-113262782D02*
X200636895Y-113643734D01*
X200636895Y-113643734D02*
X201017847Y-113681830D01*
X201017847Y-113681830D02*
X200979752Y-113643734D01*
X200979752Y-113643734D02*
X200941657Y-113567544D01*
X200941657Y-113567544D02*
X200941657Y-113377068D01*
X200941657Y-113377068D02*
X200979752Y-113300877D01*
X200979752Y-113300877D02*
X201017847Y-113262782D01*
X201017847Y-113262782D02*
X201094038Y-113224687D01*
X201094038Y-113224687D02*
X201284514Y-113224687D01*
X201284514Y-113224687D02*
X201360704Y-113262782D01*
X201360704Y-113262782D02*
X201398800Y-113300877D01*
X201398800Y-113300877D02*
X201436895Y-113377068D01*
X201436895Y-113377068D02*
X201436895Y-113567544D01*
X201436895Y-113567544D02*
X201398800Y-113643734D01*
X201398800Y-113643734D02*
X201360704Y-113681830D01*
X200636895Y-112996115D02*
X201436895Y-112729448D01*
X201436895Y-112729448D02*
X200636895Y-112462782D01*
D12*
X202993333Y-109395935D02*
X202993333Y-108595935D01*
X202993333Y-108595935D02*
X203298095Y-108595935D01*
X203298095Y-108595935D02*
X203374285Y-108634030D01*
X203374285Y-108634030D02*
X203412380Y-108672125D01*
X203412380Y-108672125D02*
X203450476Y-108748316D01*
X203450476Y-108748316D02*
X203450476Y-108862601D01*
X203450476Y-108862601D02*
X203412380Y-108938792D01*
X203412380Y-108938792D02*
X203374285Y-108976887D01*
X203374285Y-108976887D02*
X203298095Y-109014982D01*
X203298095Y-109014982D02*
X202993333Y-109014982D01*
X203717142Y-108595935D02*
X203907618Y-109395935D01*
X203907618Y-109395935D02*
X204059999Y-108824506D01*
X204059999Y-108824506D02*
X204212380Y-109395935D01*
X204212380Y-109395935D02*
X204402857Y-108595935D01*
X205164762Y-109395935D02*
X204898095Y-109014982D01*
X204707619Y-109395935D02*
X204707619Y-108595935D01*
X204707619Y-108595935D02*
X205012381Y-108595935D01*
X205012381Y-108595935D02*
X205088571Y-108634030D01*
X205088571Y-108634030D02*
X205126666Y-108672125D01*
X205126666Y-108672125D02*
X205164762Y-108748316D01*
X205164762Y-108748316D02*
X205164762Y-108862601D01*
X205164762Y-108862601D02*
X205126666Y-108938792D01*
X205126666Y-108938792D02*
X205088571Y-108976887D01*
X205088571Y-108976887D02*
X205012381Y-109014982D01*
X205012381Y-109014982D02*
X204707619Y-109014982D01*
D13*
%TO.C,C3*%
X215715000Y-110760580D02*
X215715000Y-110479420D01*
X216735000Y-110760580D02*
X216735000Y-110479420D01*
%TO.C,D2*%
X213050000Y-112000000D02*
X213700000Y-112000000D01*
X213050000Y-112000000D02*
X213050000Y-109160000D01*
X215350000Y-112000000D02*
X215350000Y-109160000D01*
%TO.C,D1*%
X209000000Y-112000000D02*
X209650000Y-112000000D01*
X209000000Y-112000000D02*
X209000000Y-109160000D01*
X211300000Y-112000000D02*
X211300000Y-109160000D01*
%TO.C,D12*%
X205135000Y-115860000D02*
X205135000Y-114160000D01*
X205135000Y-115860000D02*
X202475000Y-115860000D01*
X205135000Y-114160000D02*
X202475000Y-114160000D01*
%TO.C,D9*%
X241400000Y-112000000D02*
X242050000Y-112000000D01*
X241400000Y-112000000D02*
X241400000Y-109160000D01*
X243700000Y-112000000D02*
X243700000Y-109160000D01*
%TO.C,R1*%
X205412500Y-107212258D02*
X205412500Y-106737742D01*
X206457500Y-107212258D02*
X206457500Y-106737742D01*
%TO.C,C8*%
X235965000Y-110760580D02*
X235965000Y-110479420D01*
X236985000Y-110760580D02*
X236985000Y-110479420D01*
%TO.C,FB1*%
X203579721Y-110780000D02*
X203905279Y-110780000D01*
X203579721Y-111800000D02*
X203905279Y-111800000D01*
%TO.C,C1*%
X207615000Y-110760580D02*
X207615000Y-110479420D01*
X208635000Y-110760580D02*
X208635000Y-110479420D01*
%TO.C,C6*%
X227865000Y-110760580D02*
X227865000Y-110479420D01*
X228885000Y-110760580D02*
X228885000Y-110479420D01*
%TO.C,C4*%
X219765000Y-110760580D02*
X219765000Y-110479420D01*
X220785000Y-110760580D02*
X220785000Y-110479420D01*
%TO.C,D11*%
X249525000Y-112000000D02*
X250175000Y-112000000D01*
X249525000Y-112000000D02*
X249525000Y-109160000D01*
X251825000Y-112000000D02*
X251825000Y-109160000D01*
%TO.C,D8*%
X237350000Y-112000000D02*
X238000000Y-112000000D01*
X237350000Y-112000000D02*
X237350000Y-109160000D01*
X239650000Y-112000000D02*
X239650000Y-109160000D01*
%TO.C,R2*%
X205477500Y-110812258D02*
X205477500Y-110337742D01*
X206522500Y-110812258D02*
X206522500Y-110337742D01*
%TO.C,D5*%
X225200000Y-112000000D02*
X225850000Y-112000000D01*
X225200000Y-112000000D02*
X225200000Y-109160000D01*
X227500000Y-112000000D02*
X227500000Y-109160000D01*
%TO.C,C10*%
X244065000Y-110760580D02*
X244065000Y-110479420D01*
X245085000Y-110760580D02*
X245085000Y-110479420D01*
D10*
%TO.C,PWR*%
X203250000Y-110040000D02*
G75*
G03*
X203250000Y-110040000I-50000J0D01*
G01*
D13*
%TO.C,D6*%
X229250000Y-112000000D02*
X229900000Y-112000000D01*
X229250000Y-112000000D02*
X229250000Y-109160000D01*
X231550000Y-112000000D02*
X231550000Y-109160000D01*
%TO.C,D7*%
X233300000Y-112000000D02*
X233950000Y-112000000D01*
X233300000Y-112000000D02*
X233300000Y-109160000D01*
X235600000Y-112000000D02*
X235600000Y-109160000D01*
%TO.C,C2*%
X211665000Y-110760580D02*
X211665000Y-110479420D01*
X212685000Y-110760580D02*
X212685000Y-110479420D01*
%TO.C,C7*%
X231915000Y-110760580D02*
X231915000Y-110479420D01*
X232935000Y-110760580D02*
X232935000Y-110479420D01*
%TO.C,D10*%
X245450000Y-112000000D02*
X246100000Y-112000000D01*
X245450000Y-112000000D02*
X245450000Y-109160000D01*
X247750000Y-112000000D02*
X247750000Y-109160000D01*
%TO.C,C5*%
X223815000Y-110760580D02*
X223815000Y-110479420D01*
X224835000Y-110760580D02*
X224835000Y-110479420D01*
%TO.C,D13*%
X205035000Y-105240000D02*
X203335000Y-105240000D01*
X205035000Y-105240000D02*
X205035000Y-107900000D01*
X203335000Y-105240000D02*
X203335000Y-107900000D01*
%TO.C,D4*%
X221150000Y-112000000D02*
X221800000Y-112000000D01*
X221150000Y-112000000D02*
X221150000Y-109160000D01*
X223450000Y-112000000D02*
X223450000Y-109160000D01*
%TO.C,D3*%
X217100000Y-112000000D02*
X217750000Y-112000000D01*
X217100000Y-112000000D02*
X217100000Y-109160000D01*
X219400000Y-112000000D02*
X219400000Y-109160000D01*
%TO.C,J1*%
X199970000Y-114410000D02*
X198700000Y-114410000D01*
X199970000Y-113140000D02*
X199970000Y-114410000D01*
X197657071Y-110980000D02*
X197260000Y-110980000D01*
X197657071Y-110220000D02*
X197260000Y-110220000D01*
X197657071Y-108440000D02*
X197260000Y-108440000D01*
X197657071Y-107680000D02*
X197260000Y-107680000D01*
X197590000Y-113520000D02*
X197260000Y-113520000D01*
X197590000Y-112760000D02*
X197260000Y-112760000D01*
X197260000Y-114470000D02*
X197260000Y-106730000D01*
%TO.C,C11*%
X248140000Y-110760580D02*
X248140000Y-110479420D01*
X249160000Y-110760580D02*
X249160000Y-110479420D01*
%TO.C,C9*%
X240015000Y-110760580D02*
X240015000Y-110479420D01*
X241035000Y-110760580D02*
X241035000Y-110479420D01*
%TO.C,C12*%
X203268748Y-112305000D02*
X203791252Y-112305000D01*
X203268748Y-113775000D02*
X203791252Y-113775000D01*
%TD*%
M02*
