%TF.GenerationSoftware,KiCad,Pcbnew,7.0.7*%
%TF.CreationDate,2023-09-25T23:21:07+02:00*%
%TF.ProjectId,beginner_led_pcb,62656769-6e6e-4657-925f-6c65645f7063,rev?*%
%TF.SameCoordinates,Original*%
%TF.FileFunction,Copper,L2,Bot*%
%TF.FilePolarity,Positive*%
%FSLAX46Y46*%
G04 Gerber Fmt 4.6, Leading zero omitted, Abs format (unit mm)*
G04 Created by KiCad (PCBNEW 7.0.7) date 2023-09-25 23:21:07*
%MOMM*%
%LPD*%
G01*
G04 APERTURE LIST*
%TA.AperFunction,ComponentPad*%
%ADD10R,1.700000X1.700000*%
%TD*%
%TA.AperFunction,ComponentPad*%
%ADD11O,1.700000X1.700000*%
%TD*%
%TA.AperFunction,ViaPad*%
%ADD12C,0.800000*%
%TD*%
%TA.AperFunction,Conductor*%
%ADD13C,0.250000*%
%TD*%
G04 APERTURE END LIST*
D10*
%TO.P,J1,1,Pin_1*%
%TO.N,Net-(J1-Pin_1)*%
X198700000Y-113140000D03*
D11*
%TO.P,J1,2,Pin_2*%
%TO.N,D0*%
X198700000Y-110600000D03*
%TO.P,J1,3,Pin_3*%
%TO.N,GND*%
X198700000Y-108060000D03*
%TD*%
D12*
%TO.N,GND*%
X205975000Y-107025000D03*
X243000000Y-114500000D03*
X242000000Y-114500000D03*
X240500000Y-115250000D03*
X242500000Y-115250000D03*
X241500000Y-115250000D03*
X241000000Y-114500000D03*
X240000000Y-114500000D03*
X230750000Y-114500000D03*
X229750000Y-114500000D03*
X228250000Y-115250000D03*
X230250000Y-115250000D03*
X229250000Y-115250000D03*
X228750000Y-114500000D03*
X227750000Y-114500000D03*
X218250000Y-115250000D03*
X217250000Y-115250000D03*
X216250000Y-115250000D03*
X218750000Y-114500000D03*
X217750000Y-114500000D03*
X216750000Y-114500000D03*
X215750000Y-114500000D03*
%TO.N,D0*%
X207100000Y-108900000D03*
X202050000Y-109750000D03*
%TO.N,GND*%
X249450000Y-108900000D03*
X245400000Y-108900000D03*
X241350000Y-108850000D03*
X237300000Y-108900000D03*
X233250000Y-108900000D03*
X229200000Y-108900000D03*
X225150000Y-108900000D03*
X221050000Y-108900000D03*
X217050000Y-108900000D03*
X213000000Y-108900000D03*
X208950000Y-108900000D03*
X206000000Y-113700000D03*
%TD*%
D13*
%TO.N,D0*%
X202050000Y-109750000D02*
X202900000Y-108900000D01*
X202900000Y-108900000D02*
X207100000Y-108900000D01*
%TD*%
%TA.AperFunction,Conductor*%
%TO.N,GND*%
G36*
X249834696Y-104244675D02*
G01*
X249880501Y-104297435D01*
X249886526Y-104313423D01*
X249949996Y-104524991D01*
X249950001Y-104525004D01*
X250149999Y-104924999D01*
X250350000Y-105250001D01*
X250674994Y-105574995D01*
X250675003Y-105575003D01*
X250874999Y-105724999D01*
X251075000Y-105875000D01*
X251450000Y-106050000D01*
X251673694Y-106143206D01*
X251728004Y-106187159D01*
X251749930Y-106253499D01*
X251750000Y-106257666D01*
X251750000Y-115260874D01*
X251730315Y-115327913D01*
X251677511Y-115373668D01*
X251668376Y-115377408D01*
X251400008Y-115474996D01*
X251399992Y-115475003D01*
X251075002Y-115649998D01*
X250749998Y-115875001D01*
X250374999Y-116224999D01*
X250374999Y-116225000D01*
X250124999Y-116600001D01*
X249975000Y-116874999D01*
X249877191Y-117187986D01*
X249838407Y-117246103D01*
X249774359Y-117274025D01*
X249758836Y-117275000D01*
X197253500Y-117275000D01*
X197186461Y-117255315D01*
X197140706Y-117202511D01*
X197139038Y-117198692D01*
X197025000Y-116925000D01*
X196998076Y-116874999D01*
X196850000Y-116600000D01*
X196700001Y-116325001D01*
X196599999Y-116224999D01*
X196450000Y-116075000D01*
X196175000Y-115825000D01*
X196174998Y-115824999D01*
X196174995Y-115824996D01*
X195849999Y-115599999D01*
X195550003Y-115450001D01*
X195334787Y-115378262D01*
X195277413Y-115338387D01*
X195250704Y-115273824D01*
X195250000Y-115260625D01*
X195250000Y-110600000D01*
X197344341Y-110600000D01*
X197364936Y-110835403D01*
X197364938Y-110835413D01*
X197426094Y-111063655D01*
X197426096Y-111063659D01*
X197426097Y-111063663D01*
X197525965Y-111277830D01*
X197525967Y-111277834D01*
X197634281Y-111432521D01*
X197661501Y-111471396D01*
X197661506Y-111471402D01*
X197783430Y-111593326D01*
X197816915Y-111654649D01*
X197811931Y-111724341D01*
X197770059Y-111780274D01*
X197739083Y-111797189D01*
X197607669Y-111846203D01*
X197607664Y-111846206D01*
X197492455Y-111932452D01*
X197492452Y-111932455D01*
X197406206Y-112047664D01*
X197406202Y-112047671D01*
X197355908Y-112182517D01*
X197349501Y-112242116D01*
X197349501Y-112242123D01*
X197349500Y-112242135D01*
X197349500Y-114037870D01*
X197349501Y-114037876D01*
X197355908Y-114097483D01*
X197406202Y-114232328D01*
X197406206Y-114232335D01*
X197492452Y-114347544D01*
X197492455Y-114347547D01*
X197607664Y-114433793D01*
X197607671Y-114433797D01*
X197742517Y-114484091D01*
X197742516Y-114484091D01*
X197749444Y-114484835D01*
X197802127Y-114490500D01*
X199597872Y-114490499D01*
X199657483Y-114484091D01*
X199792331Y-114433796D01*
X199907546Y-114347546D01*
X199993796Y-114232331D01*
X200044091Y-114097483D01*
X200050500Y-114037873D01*
X200050499Y-112242128D01*
X200044091Y-112182517D01*
X199993796Y-112047669D01*
X199993795Y-112047668D01*
X199993793Y-112047664D01*
X199907547Y-111932455D01*
X199907544Y-111932452D01*
X199792335Y-111846206D01*
X199792328Y-111846202D01*
X199660917Y-111797189D01*
X199604983Y-111755318D01*
X199580566Y-111689853D01*
X199595418Y-111621580D01*
X199616563Y-111593332D01*
X199738495Y-111471401D01*
X199874035Y-111277830D01*
X199973903Y-111063663D01*
X200035063Y-110835408D01*
X200055659Y-110600000D01*
X200035063Y-110364592D01*
X199973903Y-110136337D01*
X199874035Y-109922171D01*
X199788841Y-109800500D01*
X199753481Y-109750000D01*
X201144540Y-109750000D01*
X201164326Y-109938256D01*
X201164327Y-109938259D01*
X201222818Y-110118277D01*
X201222821Y-110118284D01*
X201317467Y-110282216D01*
X201444129Y-110422888D01*
X201597265Y-110534148D01*
X201597270Y-110534151D01*
X201770192Y-110611142D01*
X201770197Y-110611144D01*
X201955354Y-110650500D01*
X201955355Y-110650500D01*
X202144644Y-110650500D01*
X202144646Y-110650500D01*
X202329803Y-110611144D01*
X202502730Y-110534151D01*
X202655871Y-110422888D01*
X202782533Y-110282216D01*
X202877179Y-110118284D01*
X202935674Y-109938256D01*
X202953321Y-109770346D01*
X202979905Y-109705733D01*
X202988950Y-109695638D01*
X203122772Y-109561817D01*
X203184094Y-109528334D01*
X203210452Y-109525500D01*
X206396252Y-109525500D01*
X206463291Y-109545185D01*
X206488400Y-109566526D01*
X206494126Y-109572885D01*
X206494130Y-109572889D01*
X206647265Y-109684148D01*
X206647270Y-109684151D01*
X206820192Y-109761142D01*
X206820197Y-109761144D01*
X207005354Y-109800500D01*
X207005355Y-109800500D01*
X207194644Y-109800500D01*
X207194646Y-109800500D01*
X207379803Y-109761144D01*
X207552730Y-109684151D01*
X207705871Y-109572888D01*
X207832533Y-109432216D01*
X207927179Y-109268284D01*
X207985674Y-109088256D01*
X208005460Y-108900000D01*
X207985674Y-108711744D01*
X207927179Y-108531716D01*
X207832533Y-108367784D01*
X207705871Y-108227112D01*
X207705870Y-108227111D01*
X207552734Y-108115851D01*
X207552729Y-108115848D01*
X207379807Y-108038857D01*
X207379802Y-108038855D01*
X207234001Y-108007865D01*
X207194646Y-107999500D01*
X207005354Y-107999500D01*
X206972897Y-108006398D01*
X206820197Y-108038855D01*
X206820192Y-108038857D01*
X206647270Y-108115848D01*
X206647265Y-108115851D01*
X206494130Y-108227110D01*
X206494126Y-108227114D01*
X206488400Y-108233474D01*
X206428913Y-108270121D01*
X206396252Y-108274500D01*
X202982743Y-108274500D01*
X202967122Y-108272775D01*
X202967095Y-108273061D01*
X202959333Y-108272326D01*
X202890172Y-108274500D01*
X202860649Y-108274500D01*
X202853778Y-108275367D01*
X202847959Y-108275825D01*
X202801374Y-108277289D01*
X202801368Y-108277290D01*
X202782126Y-108282880D01*
X202763087Y-108286823D01*
X202743217Y-108289334D01*
X202743203Y-108289337D01*
X202699883Y-108306488D01*
X202694358Y-108308380D01*
X202649613Y-108321380D01*
X202649610Y-108321381D01*
X202632366Y-108331579D01*
X202614905Y-108340133D01*
X202596274Y-108347510D01*
X202596262Y-108347517D01*
X202558570Y-108374902D01*
X202553687Y-108378109D01*
X202513580Y-108401829D01*
X202499414Y-108415995D01*
X202484624Y-108428627D01*
X202468414Y-108440404D01*
X202468411Y-108440407D01*
X202438710Y-108476309D01*
X202434777Y-108480631D01*
X202102227Y-108813182D01*
X202040906Y-108846666D01*
X202014548Y-108849500D01*
X201955354Y-108849500D01*
X201922897Y-108856398D01*
X201770197Y-108888855D01*
X201770192Y-108888857D01*
X201597270Y-108965848D01*
X201597265Y-108965851D01*
X201444129Y-109077111D01*
X201317466Y-109217785D01*
X201222821Y-109381715D01*
X201222818Y-109381722D01*
X201164327Y-109561740D01*
X201164326Y-109561744D01*
X201144540Y-109750000D01*
X199753481Y-109750000D01*
X199738494Y-109728597D01*
X199571402Y-109561506D01*
X199571401Y-109561505D01*
X199386757Y-109432216D01*
X199385405Y-109431269D01*
X199341781Y-109376692D01*
X199334588Y-109307193D01*
X199366110Y-109244839D01*
X199385405Y-109228119D01*
X199571082Y-109098105D01*
X199738105Y-108931082D01*
X199873600Y-108737578D01*
X199973429Y-108523492D01*
X199973432Y-108523486D01*
X200030636Y-108310000D01*
X199313347Y-108310000D01*
X199246308Y-108290315D01*
X199200553Y-108237511D01*
X199190609Y-108168353D01*
X199194369Y-108151067D01*
X199200000Y-108131888D01*
X199200000Y-107988111D01*
X199194369Y-107968933D01*
X199194370Y-107899064D01*
X199232145Y-107840286D01*
X199295701Y-107811262D01*
X199313347Y-107810000D01*
X200030636Y-107810000D01*
X200030635Y-107809999D01*
X199973432Y-107596513D01*
X199973429Y-107596507D01*
X199873600Y-107382422D01*
X199873599Y-107382420D01*
X199738113Y-107188926D01*
X199738108Y-107188920D01*
X199571082Y-107021894D01*
X199377578Y-106886399D01*
X199163492Y-106786570D01*
X199163486Y-106786567D01*
X198949999Y-106729364D01*
X198949999Y-107447698D01*
X198930314Y-107514737D01*
X198877510Y-107560492D01*
X198808353Y-107570436D01*
X198735764Y-107560000D01*
X198735763Y-107560000D01*
X198664237Y-107560000D01*
X198664233Y-107560000D01*
X198591645Y-107570436D01*
X198522487Y-107560492D01*
X198469684Y-107514736D01*
X198450000Y-107447698D01*
X198450000Y-106729364D01*
X198449999Y-106729364D01*
X198236513Y-106786567D01*
X198236507Y-106786570D01*
X198022422Y-106886399D01*
X198022420Y-106886400D01*
X197828926Y-107021886D01*
X197828920Y-107021891D01*
X197661891Y-107188920D01*
X197661886Y-107188926D01*
X197526400Y-107382420D01*
X197526399Y-107382422D01*
X197426570Y-107596507D01*
X197426567Y-107596513D01*
X197369364Y-107809999D01*
X197369364Y-107810000D01*
X198086653Y-107810000D01*
X198153692Y-107829685D01*
X198199447Y-107882489D01*
X198209391Y-107951647D01*
X198205631Y-107968933D01*
X198200000Y-107988111D01*
X198200000Y-108131888D01*
X198205631Y-108151067D01*
X198205630Y-108220936D01*
X198167855Y-108279714D01*
X198104299Y-108308738D01*
X198086653Y-108310000D01*
X197369364Y-108310000D01*
X197426567Y-108523486D01*
X197426570Y-108523492D01*
X197526399Y-108737578D01*
X197661894Y-108931082D01*
X197828917Y-109098105D01*
X198014595Y-109228119D01*
X198058219Y-109282696D01*
X198065412Y-109352195D01*
X198033890Y-109414549D01*
X198014595Y-109431269D01*
X197828594Y-109561508D01*
X197661505Y-109728597D01*
X197525965Y-109922169D01*
X197525964Y-109922171D01*
X197426098Y-110136335D01*
X197426094Y-110136344D01*
X197364938Y-110364586D01*
X197364936Y-110364596D01*
X197344341Y-110599999D01*
X197344341Y-110600000D01*
X195250000Y-110600000D01*
X195250000Y-106255584D01*
X195269685Y-106188545D01*
X195322489Y-106142790D01*
X195323558Y-106142307D01*
X195473558Y-106075641D01*
X195476462Y-106074437D01*
X195800000Y-105950000D01*
X196150000Y-105725000D01*
X196375000Y-105525000D01*
X196625000Y-105275000D01*
X196825000Y-105000000D01*
X196893184Y-104874994D01*
X196975000Y-104725001D01*
X197016666Y-104650000D01*
X197100000Y-104500000D01*
X197128443Y-104372005D01*
X197162201Y-104310833D01*
X197223674Y-104277622D01*
X197249365Y-104274905D01*
X249767639Y-104225054D01*
X249834696Y-104244675D01*
G37*
%TD.AperFunction*%
%TD*%
M02*
