%TF.GenerationSoftware,KiCad,Pcbnew,7.0.7*%
%TF.CreationDate,2023-09-25T07:31:56+02:00*%
%TF.ProjectId,beginner_led_pcb,62656769-6e6e-4657-925f-6c65645f7063,rev?*%
%TF.SameCoordinates,Original*%
%TF.FileFunction,Copper,L2,Bot*%
%TF.FilePolarity,Positive*%
%FSLAX46Y46*%
G04 Gerber Fmt 4.6, Leading zero omitted, Abs format (unit mm)*
G04 Created by KiCad (PCBNEW 7.0.7) date 2023-09-25 07:31:56*
%MOMM*%
%LPD*%
G01*
G04 APERTURE LIST*
%TA.AperFunction,ComponentPad*%
%ADD10R,1.700000X1.700000*%
%TD*%
%TA.AperFunction,ComponentPad*%
%ADD11O,1.700000X1.700000*%
%TD*%
%TA.AperFunction,ViaPad*%
%ADD12C,0.800000*%
%TD*%
G04 APERTURE END LIST*
D10*
%TO.P,J1,1,Pin_1*%
%TO.N,Net-(D12-A2)*%
X198700000Y-113140000D03*
D11*
%TO.P,J1,2,Pin_2*%
%TO.N,Net-(D13-A2)*%
X198700000Y-110600000D03*
%TO.P,J1,3,Pin_3*%
%TO.N,GND*%
X198700000Y-108060000D03*
%TD*%
D12*
%TO.N,GND*%
X202625000Y-109725000D03*
X232412500Y-108450000D03*
X226912500Y-108450000D03*
X202350000Y-105800000D03*
X248662500Y-108400000D03*
X212162500Y-108500000D03*
X230962500Y-108450000D03*
X218812500Y-108450000D03*
X236462500Y-108450000D03*
X235012500Y-108450000D03*
X216212500Y-108450000D03*
X208112500Y-108500000D03*
X214712500Y-108450000D03*
X247162500Y-108400000D03*
X222862500Y-108450000D03*
X228362500Y-108450000D03*
X206150000Y-113050000D03*
X210712500Y-108500000D03*
X251212500Y-108400000D03*
X239062500Y-108400000D03*
X240512500Y-108400000D03*
X243112500Y-108400000D03*
X224362500Y-108450000D03*
X220262500Y-108450000D03*
X244562500Y-108400000D03*
%TD*%
%TA.AperFunction,Conductor*%
%TO.N,GND*%
G36*
X250327665Y-104269685D02*
G01*
X250373420Y-104322489D01*
X250378263Y-104334788D01*
X250450000Y-104550001D01*
X250450001Y-104550002D01*
X250649997Y-104949995D01*
X250649999Y-104949999D01*
X250650000Y-104950000D01*
X250850000Y-105200000D01*
X251058338Y-105450006D01*
X251100002Y-105500002D01*
X251349993Y-105699995D01*
X251349997Y-105699997D01*
X251350000Y-105700000D01*
X251650000Y-105900000D01*
X251950000Y-106050000D01*
X252165211Y-106121736D01*
X252165211Y-106121737D01*
X252222586Y-106161612D01*
X252249295Y-106226175D01*
X252249999Y-106239374D01*
X252249999Y-115260625D01*
X252230314Y-115327664D01*
X252177510Y-115373419D01*
X252165212Y-115378261D01*
X252100009Y-115399996D01*
X252100008Y-115399997D01*
X252100004Y-115399998D01*
X252100000Y-115400000D01*
X251750000Y-115550000D01*
X251749998Y-115550000D01*
X251749996Y-115550002D01*
X251149997Y-115950001D01*
X250850001Y-116249997D01*
X250649999Y-116550001D01*
X250500000Y-116849999D01*
X250380173Y-117169539D01*
X250338202Y-117225399D01*
X250272695Y-117249700D01*
X250264068Y-117250000D01*
X197239374Y-117250000D01*
X197172335Y-117230315D01*
X197126580Y-117177511D01*
X197121737Y-117165212D01*
X197100000Y-117099998D01*
X197000000Y-116850000D01*
X196850000Y-116550000D01*
X196650000Y-116250000D01*
X196649999Y-116249999D01*
X196649998Y-116249997D01*
X196400013Y-116000012D01*
X196399995Y-115999995D01*
X196100000Y-115749999D01*
X196099998Y-115749997D01*
X195849997Y-115599998D01*
X195550003Y-115450001D01*
X195334787Y-115378262D01*
X195277413Y-115338387D01*
X195250704Y-115273824D01*
X195250000Y-115260625D01*
X195250000Y-110600000D01*
X197344341Y-110600000D01*
X197364936Y-110835403D01*
X197364938Y-110835413D01*
X197426094Y-111063655D01*
X197426096Y-111063659D01*
X197426097Y-111063663D01*
X197525965Y-111277830D01*
X197525967Y-111277834D01*
X197634281Y-111432521D01*
X197661501Y-111471396D01*
X197661506Y-111471402D01*
X197783430Y-111593326D01*
X197816915Y-111654649D01*
X197811931Y-111724341D01*
X197770059Y-111780274D01*
X197739083Y-111797189D01*
X197607669Y-111846203D01*
X197607664Y-111846206D01*
X197492455Y-111932452D01*
X197492452Y-111932455D01*
X197406206Y-112047664D01*
X197406202Y-112047671D01*
X197355908Y-112182517D01*
X197349501Y-112242116D01*
X197349501Y-112242123D01*
X197349500Y-112242135D01*
X197349500Y-114037870D01*
X197349501Y-114037876D01*
X197355908Y-114097483D01*
X197406202Y-114232328D01*
X197406206Y-114232335D01*
X197492452Y-114347544D01*
X197492455Y-114347547D01*
X197607664Y-114433793D01*
X197607671Y-114433797D01*
X197742517Y-114484091D01*
X197742516Y-114484091D01*
X197749444Y-114484835D01*
X197802127Y-114490500D01*
X199597872Y-114490499D01*
X199657483Y-114484091D01*
X199792331Y-114433796D01*
X199907546Y-114347546D01*
X199993796Y-114232331D01*
X200044091Y-114097483D01*
X200050500Y-114037873D01*
X200050499Y-112242128D01*
X200044091Y-112182517D01*
X199993796Y-112047669D01*
X199993795Y-112047668D01*
X199993793Y-112047664D01*
X199907547Y-111932455D01*
X199907544Y-111932452D01*
X199792335Y-111846206D01*
X199792328Y-111846202D01*
X199660917Y-111797189D01*
X199604983Y-111755318D01*
X199580566Y-111689853D01*
X199595418Y-111621580D01*
X199616563Y-111593332D01*
X199738495Y-111471401D01*
X199874035Y-111277830D01*
X199973903Y-111063663D01*
X200035063Y-110835408D01*
X200055659Y-110600000D01*
X200035063Y-110364592D01*
X199973903Y-110136337D01*
X199874035Y-109922171D01*
X199738495Y-109728599D01*
X199738494Y-109728597D01*
X199571402Y-109561506D01*
X199571401Y-109561505D01*
X199385405Y-109431269D01*
X199341781Y-109376692D01*
X199334588Y-109307193D01*
X199366110Y-109244839D01*
X199385405Y-109228119D01*
X199571082Y-109098105D01*
X199738105Y-108931082D01*
X199873600Y-108737578D01*
X199973429Y-108523492D01*
X199973432Y-108523486D01*
X200030636Y-108310000D01*
X199313347Y-108310000D01*
X199246308Y-108290315D01*
X199200553Y-108237511D01*
X199190609Y-108168353D01*
X199194369Y-108151067D01*
X199200000Y-108131888D01*
X199200000Y-107988111D01*
X199194369Y-107968933D01*
X199194370Y-107899064D01*
X199232145Y-107840286D01*
X199295701Y-107811262D01*
X199313347Y-107810000D01*
X200030636Y-107810000D01*
X200030635Y-107809999D01*
X199973432Y-107596513D01*
X199973429Y-107596507D01*
X199873600Y-107382422D01*
X199873599Y-107382420D01*
X199738113Y-107188926D01*
X199738108Y-107188920D01*
X199571082Y-107021894D01*
X199377578Y-106886399D01*
X199163492Y-106786570D01*
X199163486Y-106786567D01*
X198949999Y-106729364D01*
X198949999Y-107447698D01*
X198930314Y-107514737D01*
X198877510Y-107560492D01*
X198808353Y-107570436D01*
X198735764Y-107560000D01*
X198735763Y-107560000D01*
X198664237Y-107560000D01*
X198664233Y-107560000D01*
X198591645Y-107570436D01*
X198522487Y-107560492D01*
X198469684Y-107514736D01*
X198450000Y-107447698D01*
X198450000Y-106729364D01*
X198449999Y-106729364D01*
X198236513Y-106786567D01*
X198236507Y-106786570D01*
X198022422Y-106886399D01*
X198022420Y-106886400D01*
X197828926Y-107021886D01*
X197828920Y-107021891D01*
X197661891Y-107188920D01*
X197661886Y-107188926D01*
X197526400Y-107382420D01*
X197526399Y-107382422D01*
X197426570Y-107596507D01*
X197426567Y-107596513D01*
X197369364Y-107809999D01*
X197369364Y-107810000D01*
X198086653Y-107810000D01*
X198153692Y-107829685D01*
X198199447Y-107882489D01*
X198209391Y-107951647D01*
X198205631Y-107968933D01*
X198200000Y-107988111D01*
X198200000Y-108131888D01*
X198205631Y-108151067D01*
X198205630Y-108220936D01*
X198167855Y-108279714D01*
X198104299Y-108308738D01*
X198086653Y-108310000D01*
X197369364Y-108310000D01*
X197426567Y-108523486D01*
X197426570Y-108523492D01*
X197526399Y-108737578D01*
X197661894Y-108931082D01*
X197828917Y-109098105D01*
X198014595Y-109228119D01*
X198058219Y-109282696D01*
X198065412Y-109352195D01*
X198033890Y-109414549D01*
X198014595Y-109431269D01*
X197828594Y-109561508D01*
X197661505Y-109728597D01*
X197525965Y-109922169D01*
X197525964Y-109922171D01*
X197426098Y-110136335D01*
X197426094Y-110136344D01*
X197364938Y-110364586D01*
X197364936Y-110364596D01*
X197344341Y-110599999D01*
X197344341Y-110600000D01*
X195250000Y-110600000D01*
X195250000Y-106289374D01*
X195269685Y-106222335D01*
X195322489Y-106176580D01*
X195334782Y-106171739D01*
X195400000Y-106150000D01*
X195800000Y-105950000D01*
X196150000Y-105750000D01*
X196299997Y-105600002D01*
X196449995Y-105450006D01*
X196449994Y-105450006D01*
X196450000Y-105450000D01*
X196800000Y-105050000D01*
X196950000Y-104800000D01*
X197100000Y-104500000D01*
X197168820Y-104327948D01*
X197211995Y-104273014D01*
X197278015Y-104250142D01*
X197283952Y-104250000D01*
X250260626Y-104250000D01*
X250327665Y-104269685D01*
G37*
%TD.AperFunction*%
%TD*%
M02*
