%TF.GenerationSoftware,KiCad,Pcbnew,7.0.7*%
%TF.CreationDate,2023-09-25T07:31:56+02:00*%
%TF.ProjectId,beginner_led_pcb,62656769-6e6e-4657-925f-6c65645f7063,rev?*%
%TF.SameCoordinates,Original*%
%TF.FileFunction,Soldermask,Top*%
%TF.FilePolarity,Negative*%
%FSLAX46Y46*%
G04 Gerber Fmt 4.6, Leading zero omitted, Abs format (unit mm)*
G04 Created by KiCad (PCBNEW 7.0.7) date 2023-09-25 07:31:56*
%MOMM*%
%LPD*%
G01*
G04 APERTURE LIST*
G04 Aperture macros list*
%AMRoundRect*
0 Rectangle with rounded corners*
0 $1 Rounding radius*
0 $2 $3 $4 $5 $6 $7 $8 $9 X,Y pos of 4 corners*
0 Add a 4 corners polygon primitive as box body*
4,1,4,$2,$3,$4,$5,$6,$7,$8,$9,$2,$3,0*
0 Add four circle primitives for the rounded corners*
1,1,$1+$1,$2,$3*
1,1,$1+$1,$4,$5*
1,1,$1+$1,$6,$7*
1,1,$1+$1,$8,$9*
0 Add four rect primitives between the rounded corners*
20,1,$1+$1,$2,$3,$4,$5,0*
20,1,$1+$1,$4,$5,$6,$7,0*
20,1,$1+$1,$6,$7,$8,$9,0*
20,1,$1+$1,$8,$9,$2,$3,0*%
G04 Aperture macros list end*
%ADD10RoundRect,0.225000X0.250000X-0.225000X0.250000X0.225000X-0.250000X0.225000X-0.250000X-0.225000X0*%
%ADD11R,0.700000X0.700000*%
%ADD12RoundRect,0.112500X0.187500X0.112500X-0.187500X0.112500X-0.187500X-0.112500X0.187500X-0.112500X0*%
%ADD13RoundRect,0.200000X0.275000X-0.200000X0.275000X0.200000X-0.275000X0.200000X-0.275000X-0.200000X0*%
%ADD14RoundRect,0.218750X-0.218750X-0.256250X0.218750X-0.256250X0.218750X0.256250X-0.218750X0.256250X0*%
%ADD15RoundRect,0.147500X-0.147500X-0.172500X0.147500X-0.172500X0.147500X0.172500X-0.147500X0.172500X0*%
%ADD16RoundRect,0.112500X-0.112500X0.187500X-0.112500X-0.187500X0.112500X-0.187500X0.112500X0.187500X0*%
%ADD17R,1.700000X1.700000*%
%ADD18O,1.700000X1.700000*%
%ADD19RoundRect,0.250000X-0.250000X-0.475000X0.250000X-0.475000X0.250000X0.475000X-0.250000X0.475000X0*%
G04 APERTURE END LIST*
D10*
%TO.C,C3*%
X216225000Y-111395000D03*
X216225000Y-109845000D03*
%TD*%
D11*
%TO.C,D2*%
X213650000Y-111495000D03*
X214750000Y-111495000D03*
X214750000Y-109665000D03*
X213650000Y-109665000D03*
%TD*%
%TO.C,D1*%
X209600000Y-111495000D03*
X210700000Y-111495000D03*
X210700000Y-109665000D03*
X209600000Y-109665000D03*
%TD*%
D12*
%TO.C,D12*%
X204575000Y-115010000D03*
X202475000Y-115010000D03*
%TD*%
D11*
%TO.C,D9*%
X242000000Y-111495000D03*
X243100000Y-111495000D03*
X243100000Y-109665000D03*
X242000000Y-109665000D03*
%TD*%
D13*
%TO.C,R1*%
X205935000Y-107800000D03*
X205935000Y-106150000D03*
%TD*%
D10*
%TO.C,C8*%
X236475000Y-111395000D03*
X236475000Y-109845000D03*
%TD*%
D14*
%TO.C,FB1*%
X202955000Y-111290000D03*
X204530000Y-111290000D03*
%TD*%
D10*
%TO.C,C1*%
X208125000Y-111395000D03*
X208125000Y-109845000D03*
%TD*%
%TO.C,C6*%
X228375000Y-111395000D03*
X228375000Y-109845000D03*
%TD*%
%TO.C,C4*%
X220275000Y-111395000D03*
X220275000Y-109845000D03*
%TD*%
D11*
%TO.C,D11*%
X250125000Y-111495000D03*
X251225000Y-111495000D03*
X251225000Y-109665000D03*
X250125000Y-109665000D03*
%TD*%
%TO.C,D8*%
X237950000Y-111495000D03*
X239050000Y-111495000D03*
X239050000Y-109665000D03*
X237950000Y-109665000D03*
%TD*%
D13*
%TO.C,R2*%
X206000000Y-111400000D03*
X206000000Y-109750000D03*
%TD*%
D11*
%TO.C,D5*%
X225800000Y-111495000D03*
X226900000Y-111495000D03*
X226900000Y-109665000D03*
X225800000Y-109665000D03*
%TD*%
D10*
%TO.C,C10*%
X244575000Y-111395000D03*
X244575000Y-109845000D03*
%TD*%
D15*
%TO.C,PWR*%
X203805000Y-110040000D03*
X204775000Y-110040000D03*
%TD*%
D11*
%TO.C,D6*%
X229850000Y-111495000D03*
X230950000Y-111495000D03*
X230950000Y-109665000D03*
X229850000Y-109665000D03*
%TD*%
%TO.C,D7*%
X233900000Y-111495000D03*
X235000000Y-111495000D03*
X235000000Y-109665000D03*
X233900000Y-109665000D03*
%TD*%
D10*
%TO.C,C2*%
X212175000Y-111395000D03*
X212175000Y-109845000D03*
%TD*%
%TO.C,C7*%
X232425000Y-111395000D03*
X232425000Y-109845000D03*
%TD*%
D11*
%TO.C,D10*%
X246050000Y-111495000D03*
X247150000Y-111495000D03*
X247150000Y-109665000D03*
X246050000Y-109665000D03*
%TD*%
D10*
%TO.C,C5*%
X224325000Y-111395000D03*
X224325000Y-109845000D03*
%TD*%
D16*
%TO.C,D13*%
X204185000Y-105800000D03*
X204185000Y-107900000D03*
%TD*%
D11*
%TO.C,D4*%
X221750000Y-111495000D03*
X222850000Y-111495000D03*
X222850000Y-109665000D03*
X221750000Y-109665000D03*
%TD*%
%TO.C,D3*%
X217700000Y-111495000D03*
X218800000Y-111495000D03*
X218800000Y-109665000D03*
X217700000Y-109665000D03*
%TD*%
D17*
%TO.C,J1*%
X198700000Y-113140000D03*
D18*
X198700000Y-110600000D03*
X198700000Y-108060000D03*
%TD*%
D10*
%TO.C,C11*%
X248650000Y-111395000D03*
X248650000Y-109845000D03*
%TD*%
%TO.C,C9*%
X240525000Y-111395000D03*
X240525000Y-109845000D03*
%TD*%
D19*
%TO.C,C12*%
X202580000Y-113040000D03*
X204480000Y-113040000D03*
%TD*%
M02*
