%TF.GenerationSoftware,KiCad,Pcbnew,7.0.7*%
%TF.CreationDate,2023-09-25T07:31:56+02:00*%
%TF.ProjectId,beginner_led_pcb,62656769-6e6e-4657-925f-6c65645f7063,rev?*%
%TF.SameCoordinates,Original*%
%TF.FileFunction,Copper,L1,Top*%
%TF.FilePolarity,Positive*%
%FSLAX46Y46*%
G04 Gerber Fmt 4.6, Leading zero omitted, Abs format (unit mm)*
G04 Created by KiCad (PCBNEW 7.0.7) date 2023-09-25 07:31:56*
%MOMM*%
%LPD*%
G01*
G04 APERTURE LIST*
G04 Aperture macros list*
%AMRoundRect*
0 Rectangle with rounded corners*
0 $1 Rounding radius*
0 $2 $3 $4 $5 $6 $7 $8 $9 X,Y pos of 4 corners*
0 Add a 4 corners polygon primitive as box body*
4,1,4,$2,$3,$4,$5,$6,$7,$8,$9,$2,$3,0*
0 Add four circle primitives for the rounded corners*
1,1,$1+$1,$2,$3*
1,1,$1+$1,$4,$5*
1,1,$1+$1,$6,$7*
1,1,$1+$1,$8,$9*
0 Add four rect primitives between the rounded corners*
20,1,$1+$1,$2,$3,$4,$5,0*
20,1,$1+$1,$4,$5,$6,$7,0*
20,1,$1+$1,$6,$7,$8,$9,0*
20,1,$1+$1,$8,$9,$2,$3,0*%
G04 Aperture macros list end*
%TA.AperFunction,SMDPad,CuDef*%
%ADD10RoundRect,0.225000X0.250000X-0.225000X0.250000X0.225000X-0.250000X0.225000X-0.250000X-0.225000X0*%
%TD*%
%TA.AperFunction,SMDPad,CuDef*%
%ADD11R,0.700000X0.700000*%
%TD*%
%TA.AperFunction,SMDPad,CuDef*%
%ADD12RoundRect,0.112500X0.187500X0.112500X-0.187500X0.112500X-0.187500X-0.112500X0.187500X-0.112500X0*%
%TD*%
%TA.AperFunction,SMDPad,CuDef*%
%ADD13RoundRect,0.200000X0.275000X-0.200000X0.275000X0.200000X-0.275000X0.200000X-0.275000X-0.200000X0*%
%TD*%
%TA.AperFunction,SMDPad,CuDef*%
%ADD14RoundRect,0.218750X-0.218750X-0.256250X0.218750X-0.256250X0.218750X0.256250X-0.218750X0.256250X0*%
%TD*%
%TA.AperFunction,SMDPad,CuDef*%
%ADD15RoundRect,0.147500X-0.147500X-0.172500X0.147500X-0.172500X0.147500X0.172500X-0.147500X0.172500X0*%
%TD*%
%TA.AperFunction,SMDPad,CuDef*%
%ADD16RoundRect,0.112500X-0.112500X0.187500X-0.112500X-0.187500X0.112500X-0.187500X0.112500X0.187500X0*%
%TD*%
%TA.AperFunction,ComponentPad*%
%ADD17R,1.700000X1.700000*%
%TD*%
%TA.AperFunction,ComponentPad*%
%ADD18O,1.700000X1.700000*%
%TD*%
%TA.AperFunction,SMDPad,CuDef*%
%ADD19RoundRect,0.250000X-0.250000X-0.475000X0.250000X-0.475000X0.250000X0.475000X-0.250000X0.475000X0*%
%TD*%
%TA.AperFunction,ViaPad*%
%ADD20C,0.800000*%
%TD*%
%TA.AperFunction,Conductor*%
%ADD21C,1.000000*%
%TD*%
%TA.AperFunction,Conductor*%
%ADD22C,0.800000*%
%TD*%
%TA.AperFunction,Conductor*%
%ADD23C,0.400000*%
%TD*%
%TA.AperFunction,Conductor*%
%ADD24C,0.250000*%
%TD*%
G04 APERTURE END LIST*
D10*
%TO.P,C3,1*%
%TO.N,+5V*%
X216225000Y-111395000D03*
%TO.P,C3,2*%
%TO.N,GND*%
X216225000Y-109845000D03*
%TD*%
D11*
%TO.P,D2,1,VDD*%
%TO.N,+5V*%
X213650000Y-111495000D03*
%TO.P,D2,2,DOUT*%
%TO.N,Net-(D2-DOUT)*%
X214750000Y-111495000D03*
%TO.P,D2,3,VSS*%
%TO.N,GND*%
X214750000Y-109665000D03*
%TO.P,D2,4,DIN*%
%TO.N,Net-(D1-DOUT)*%
X213650000Y-109665000D03*
%TD*%
%TO.P,D1,1,VDD*%
%TO.N,+5V*%
X209600000Y-111495000D03*
%TO.P,D1,2,DOUT*%
%TO.N,Net-(D1-DOUT)*%
X210700000Y-111495000D03*
%TO.P,D1,3,VSS*%
%TO.N,GND*%
X210700000Y-109665000D03*
%TO.P,D1,4,DIN*%
%TO.N,D0*%
X209600000Y-109665000D03*
%TD*%
D12*
%TO.P,D12,1,A1*%
%TO.N,GND*%
X204575000Y-115010000D03*
%TO.P,D12,2,A2*%
%TO.N,Net-(D12-A2)*%
X202475000Y-115010000D03*
%TD*%
D11*
%TO.P,D9,1,VDD*%
%TO.N,+5V*%
X242000000Y-111495000D03*
%TO.P,D9,2,DOUT*%
%TO.N,Net-(D10-DIN)*%
X243100000Y-111495000D03*
%TO.P,D9,3,VSS*%
%TO.N,GND*%
X243100000Y-109665000D03*
%TO.P,D9,4,DIN*%
%TO.N,Net-(D8-DOUT)*%
X242000000Y-109665000D03*
%TD*%
D13*
%TO.P,R1,1*%
%TO.N,Net-(D13-A2)*%
X205935000Y-107800000D03*
%TO.P,R1,2*%
%TO.N,D0*%
X205935000Y-106150000D03*
%TD*%
D10*
%TO.P,C8,1*%
%TO.N,+5V*%
X236475000Y-111395000D03*
%TO.P,C8,2*%
%TO.N,GND*%
X236475000Y-109845000D03*
%TD*%
D14*
%TO.P,FB1,1*%
%TO.N,Net-(D12-A2)*%
X202955000Y-111290000D03*
%TO.P,FB1,2*%
%TO.N,+5V*%
X204530000Y-111290000D03*
%TD*%
D10*
%TO.P,C1,1*%
%TO.N,+5V*%
X208125000Y-111395000D03*
%TO.P,C1,2*%
%TO.N,GND*%
X208125000Y-109845000D03*
%TD*%
%TO.P,C6,1*%
%TO.N,+5V*%
X228375000Y-111395000D03*
%TO.P,C6,2*%
%TO.N,GND*%
X228375000Y-109845000D03*
%TD*%
%TO.P,C4,1*%
%TO.N,+5V*%
X220275000Y-111395000D03*
%TO.P,C4,2*%
%TO.N,GND*%
X220275000Y-109845000D03*
%TD*%
D11*
%TO.P,D11,1,VDD*%
%TO.N,+5V*%
X250125000Y-111495000D03*
%TO.P,D11,2,DOUT*%
%TO.N,/NeoPixels 1|11/DOUT*%
X251225000Y-111495000D03*
%TO.P,D11,3,VSS*%
%TO.N,GND*%
X251225000Y-109665000D03*
%TO.P,D11,4,DIN*%
%TO.N,Net-(D10-DOUT)*%
X250125000Y-109665000D03*
%TD*%
%TO.P,D8,1,VDD*%
%TO.N,+5V*%
X237950000Y-111495000D03*
%TO.P,D8,2,DOUT*%
%TO.N,Net-(D8-DOUT)*%
X239050000Y-111495000D03*
%TO.P,D8,3,VSS*%
%TO.N,GND*%
X239050000Y-109665000D03*
%TO.P,D8,4,DIN*%
%TO.N,Net-(D7-DOUT)*%
X237950000Y-109665000D03*
%TD*%
D13*
%TO.P,R2,1*%
%TO.N,+5V*%
X206000000Y-111400000D03*
%TO.P,R2,2*%
%TO.N,Net-(D14-A)*%
X206000000Y-109750000D03*
%TD*%
D11*
%TO.P,D5,1,VDD*%
%TO.N,+5V*%
X225800000Y-111495000D03*
%TO.P,D5,2,DOUT*%
%TO.N,Net-(D5-DOUT)*%
X226900000Y-111495000D03*
%TO.P,D5,3,VSS*%
%TO.N,GND*%
X226900000Y-109665000D03*
%TO.P,D5,4,DIN*%
%TO.N,Net-(D4-DOUT)*%
X225800000Y-109665000D03*
%TD*%
D10*
%TO.P,C10,1*%
%TO.N,+5V*%
X244575000Y-111395000D03*
%TO.P,C10,2*%
%TO.N,GND*%
X244575000Y-109845000D03*
%TD*%
D15*
%TO.P,PWR,1,K*%
%TO.N,GND*%
X203805000Y-110040000D03*
%TO.P,PWR,2,A*%
%TO.N,Net-(D14-A)*%
X204775000Y-110040000D03*
%TD*%
D11*
%TO.P,D6,1,VDD*%
%TO.N,+5V*%
X229850000Y-111495000D03*
%TO.P,D6,2,DOUT*%
%TO.N,Net-(D6-DOUT)*%
X230950000Y-111495000D03*
%TO.P,D6,3,VSS*%
%TO.N,GND*%
X230950000Y-109665000D03*
%TO.P,D6,4,DIN*%
%TO.N,Net-(D5-DOUT)*%
X229850000Y-109665000D03*
%TD*%
%TO.P,D7,1,VDD*%
%TO.N,+5V*%
X233900000Y-111495000D03*
%TO.P,D7,2,DOUT*%
%TO.N,Net-(D7-DOUT)*%
X235000000Y-111495000D03*
%TO.P,D7,3,VSS*%
%TO.N,GND*%
X235000000Y-109665000D03*
%TO.P,D7,4,DIN*%
%TO.N,Net-(D6-DOUT)*%
X233900000Y-109665000D03*
%TD*%
D10*
%TO.P,C2,1*%
%TO.N,+5V*%
X212175000Y-111395000D03*
%TO.P,C2,2*%
%TO.N,GND*%
X212175000Y-109845000D03*
%TD*%
%TO.P,C7,1*%
%TO.N,+5V*%
X232425000Y-111395000D03*
%TO.P,C7,2*%
%TO.N,GND*%
X232425000Y-109845000D03*
%TD*%
D11*
%TO.P,D10,1,VDD*%
%TO.N,+5V*%
X246050000Y-111495000D03*
%TO.P,D10,2,DOUT*%
%TO.N,Net-(D10-DOUT)*%
X247150000Y-111495000D03*
%TO.P,D10,3,VSS*%
%TO.N,GND*%
X247150000Y-109665000D03*
%TO.P,D10,4,DIN*%
%TO.N,Net-(D10-DIN)*%
X246050000Y-109665000D03*
%TD*%
D10*
%TO.P,C5,1*%
%TO.N,+5V*%
X224325000Y-111395000D03*
%TO.P,C5,2*%
%TO.N,GND*%
X224325000Y-109845000D03*
%TD*%
D16*
%TO.P,D13,1,A1*%
%TO.N,GND*%
X204185000Y-105800000D03*
%TO.P,D13,2,A2*%
%TO.N,Net-(D13-A2)*%
X204185000Y-107900000D03*
%TD*%
D11*
%TO.P,D4,1,VDD*%
%TO.N,+5V*%
X221750000Y-111495000D03*
%TO.P,D4,2,DOUT*%
%TO.N,Net-(D4-DOUT)*%
X222850000Y-111495000D03*
%TO.P,D4,3,VSS*%
%TO.N,GND*%
X222850000Y-109665000D03*
%TO.P,D4,4,DIN*%
%TO.N,Net-(D3-DOUT)*%
X221750000Y-109665000D03*
%TD*%
%TO.P,D3,1,VDD*%
%TO.N,+5V*%
X217700000Y-111495000D03*
%TO.P,D3,2,DOUT*%
%TO.N,Net-(D3-DOUT)*%
X218800000Y-111495000D03*
%TO.P,D3,3,VSS*%
%TO.N,GND*%
X218800000Y-109665000D03*
%TO.P,D3,4,DIN*%
%TO.N,Net-(D2-DOUT)*%
X217700000Y-109665000D03*
%TD*%
D17*
%TO.P,J1,1,Pin_1*%
%TO.N,Net-(D12-A2)*%
X198700000Y-113140000D03*
D18*
%TO.P,J1,2,Pin_2*%
%TO.N,Net-(D13-A2)*%
X198700000Y-110600000D03*
%TO.P,J1,3,Pin_3*%
%TO.N,GND*%
X198700000Y-108060000D03*
%TD*%
D10*
%TO.P,C11,1*%
%TO.N,+5V*%
X248650000Y-111395000D03*
%TO.P,C11,2*%
%TO.N,GND*%
X248650000Y-109845000D03*
%TD*%
%TO.P,C9,1*%
%TO.N,+5V*%
X240525000Y-111395000D03*
%TO.P,C9,2*%
%TO.N,GND*%
X240525000Y-109845000D03*
%TD*%
D19*
%TO.P,C12,1*%
%TO.N,Net-(D12-A2)*%
X202580000Y-113040000D03*
%TO.P,C12,2*%
%TO.N,GND*%
X204480000Y-113040000D03*
%TD*%
D20*
%TO.N,GND*%
X202625000Y-109725000D03*
X232412500Y-108450000D03*
X226912500Y-108450000D03*
X202350000Y-105800000D03*
X248662500Y-108400000D03*
X212162500Y-108500000D03*
X230962500Y-108450000D03*
X218812500Y-108450000D03*
X236462500Y-108450000D03*
X235012500Y-108450000D03*
X216212500Y-108450000D03*
X208112500Y-108500000D03*
X214712500Y-108450000D03*
X247162500Y-108400000D03*
X222862500Y-108450000D03*
X228362500Y-108450000D03*
X206150000Y-113050000D03*
X210712500Y-108500000D03*
X251212500Y-108400000D03*
X239062500Y-108400000D03*
X240512500Y-108400000D03*
X243112500Y-108400000D03*
X224362500Y-108450000D03*
X220262500Y-108450000D03*
X244562500Y-108400000D03*
%TD*%
D21*
%TO.N,+5V*%
X250125000Y-111495000D02*
X248700000Y-111495000D01*
X248700000Y-111495000D02*
X248650000Y-111445000D01*
X246050000Y-111495000D02*
X244625000Y-111495000D01*
X244625000Y-111495000D02*
X244575000Y-111445000D01*
X242000000Y-111495000D02*
X240575000Y-111495000D01*
X240575000Y-111495000D02*
X240525000Y-111445000D01*
X237950000Y-111495000D02*
X236525000Y-111495000D01*
X236525000Y-111495000D02*
X236475000Y-111445000D01*
X233900000Y-111495000D02*
X232475000Y-111495000D01*
X232475000Y-111495000D02*
X232425000Y-111445000D01*
X229850000Y-111495000D02*
X228425000Y-111495000D01*
X228425000Y-111495000D02*
X228375000Y-111445000D01*
X225800000Y-111495000D02*
X224375000Y-111495000D01*
X224375000Y-111495000D02*
X224325000Y-111445000D01*
X221750000Y-111495000D02*
X220325000Y-111495000D01*
X220325000Y-111495000D02*
X220275000Y-111445000D01*
X217700000Y-111495000D02*
X216275000Y-111495000D01*
X216275000Y-111495000D02*
X216225000Y-111445000D01*
X209600000Y-111495000D02*
X208225000Y-111495000D01*
X208225000Y-111495000D02*
X208125000Y-111395000D01*
X213650000Y-111495000D02*
X212225000Y-111495000D01*
X212225000Y-111495000D02*
X212175000Y-111445000D01*
D22*
X216225000Y-111395000D02*
X216225000Y-113045000D01*
D21*
X208130000Y-111400000D02*
X208130000Y-113050000D01*
D22*
X220275000Y-111395000D02*
X220275000Y-113045000D01*
X212175000Y-111395000D02*
X212175000Y-113035000D01*
X216225000Y-113045000D02*
X216230000Y-113050000D01*
X228375000Y-111395000D02*
X228375000Y-113045000D01*
D21*
X208125000Y-111395000D02*
X208130000Y-111400000D01*
D22*
X240525000Y-111395000D02*
X240525000Y-113045000D01*
D21*
X225810000Y-113050000D02*
X228370000Y-113050000D01*
D22*
X232425000Y-111395000D02*
X232425000Y-113045000D01*
X224325000Y-113025000D02*
X224350000Y-113050000D01*
D21*
X213650000Y-113050000D02*
X216230000Y-113050000D01*
X232420000Y-113050000D02*
X233880000Y-113050000D01*
X240530000Y-113050000D02*
X242000000Y-113050000D01*
X208120000Y-111400000D02*
X208125000Y-111395000D01*
X229860000Y-113050000D02*
X232420000Y-113050000D01*
D22*
X236475000Y-113045000D02*
X236470000Y-113050000D01*
X232425000Y-113045000D02*
X232420000Y-113050000D01*
D21*
X208130000Y-113050000D02*
X209600000Y-113050000D01*
X228370000Y-113050000D02*
X229860000Y-113050000D01*
X236470000Y-113050000D02*
X237970000Y-113050000D01*
D22*
X236475000Y-111395000D02*
X236475000Y-113045000D01*
D21*
X206000000Y-111400000D02*
X208120000Y-111400000D01*
D22*
X240525000Y-113045000D02*
X240530000Y-113050000D01*
X220275000Y-113045000D02*
X220280000Y-113050000D01*
X248650000Y-111395000D02*
X248650000Y-113040000D01*
D21*
X221740000Y-113050000D02*
X224350000Y-113050000D01*
D22*
X228375000Y-113045000D02*
X228370000Y-113050000D01*
X248650000Y-113040000D02*
X248640000Y-113050000D01*
D21*
X246060000Y-113050000D02*
X248640000Y-113050000D01*
X212160000Y-113050000D02*
X213650000Y-113050000D01*
X216230000Y-113050000D02*
X217700000Y-113050000D01*
X204530000Y-111290000D02*
X205890000Y-111290000D01*
D22*
X244575000Y-111395000D02*
X244575000Y-113035000D01*
D21*
X242000000Y-113050000D02*
X244590000Y-113050000D01*
X244590000Y-113050000D02*
X246060000Y-113050000D01*
D22*
X224325000Y-111395000D02*
X224325000Y-113025000D01*
D21*
X209600000Y-113050000D02*
X212160000Y-113050000D01*
X233880000Y-113050000D02*
X236470000Y-113050000D01*
X224350000Y-113050000D02*
X225810000Y-113050000D01*
X237970000Y-113050000D02*
X240530000Y-113050000D01*
X220280000Y-113050000D02*
X221740000Y-113050000D01*
X205890000Y-111290000D02*
X206000000Y-111400000D01*
D22*
X212175000Y-113035000D02*
X212160000Y-113050000D01*
D21*
X217700000Y-113050000D02*
X220280000Y-113050000D01*
D22*
X244575000Y-113035000D02*
X244590000Y-113050000D01*
%TO.N,GND*%
X222850000Y-108462500D02*
X222862500Y-108450000D01*
D23*
X203805000Y-110040000D02*
X202940000Y-110040000D01*
D22*
X236475000Y-108462500D02*
X236462500Y-108450000D01*
X248650000Y-108412500D02*
X248662500Y-108400000D01*
X244575000Y-108412500D02*
X244562500Y-108400000D01*
D23*
X202940000Y-110040000D02*
X202625000Y-109725000D01*
D22*
X214750000Y-108487500D02*
X214712500Y-108450000D01*
X226900000Y-108462500D02*
X226912500Y-108450000D01*
X230950000Y-109665000D02*
X230950000Y-108462500D01*
X251225000Y-108412500D02*
X251212500Y-108400000D01*
D21*
X206140000Y-113040000D02*
X206150000Y-113050000D01*
D22*
X243100000Y-109665000D02*
X243100000Y-108412500D01*
X251225000Y-109665000D02*
X251225000Y-108412500D01*
D24*
X204185000Y-105800000D02*
X202350000Y-105800000D01*
D22*
X210700000Y-108512500D02*
X210712500Y-108500000D01*
D21*
X204480000Y-113040000D02*
X206140000Y-113040000D01*
D22*
X230950000Y-108462500D02*
X230962500Y-108450000D01*
X232425000Y-109845000D02*
X232425000Y-108462500D01*
X239050000Y-109665000D02*
X239050000Y-108412500D01*
X236475000Y-109845000D02*
X236475000Y-108462500D01*
X224325000Y-109845000D02*
X224325000Y-108487500D01*
X208125000Y-108512500D02*
X208112500Y-108500000D01*
X220275000Y-108462500D02*
X220262500Y-108450000D01*
X244575000Y-109845000D02*
X244575000Y-108412500D01*
X222850000Y-109665000D02*
X222850000Y-108462500D01*
X243100000Y-108412500D02*
X243112500Y-108400000D01*
X247150000Y-108412500D02*
X247162500Y-108400000D01*
X240525000Y-108412500D02*
X240512500Y-108400000D01*
X212175000Y-109845000D02*
X212175000Y-108512500D01*
X226900000Y-109665000D02*
X226900000Y-108462500D01*
X218800000Y-109665000D02*
X218800000Y-108462500D01*
X214750000Y-109665000D02*
X214750000Y-108487500D01*
X235000000Y-108462500D02*
X235012500Y-108450000D01*
X232425000Y-108462500D02*
X232412500Y-108450000D01*
X218800000Y-108462500D02*
X218812500Y-108450000D01*
D21*
X204480000Y-113040000D02*
X204480000Y-114915000D01*
D22*
X216225000Y-109845000D02*
X216225000Y-108462500D01*
X224325000Y-108487500D02*
X224362500Y-108450000D01*
X247150000Y-109665000D02*
X247150000Y-108412500D01*
X208125000Y-109845000D02*
X208125000Y-108512500D01*
X239050000Y-108412500D02*
X239062500Y-108400000D01*
X212175000Y-108512500D02*
X212162500Y-108500000D01*
X220275000Y-109845000D02*
X220275000Y-108462500D01*
X216225000Y-108462500D02*
X216212500Y-108450000D01*
D21*
X204480000Y-114915000D02*
X204575000Y-115010000D01*
D22*
X248650000Y-109845000D02*
X248650000Y-108412500D01*
X228375000Y-109845000D02*
X228375000Y-108462500D01*
X235000000Y-109665000D02*
X235000000Y-108462500D01*
X210700000Y-109665000D02*
X210700000Y-108512500D01*
X240525000Y-109845000D02*
X240525000Y-108412500D01*
X228375000Y-108462500D02*
X228362500Y-108450000D01*
D24*
%TO.N,Net-(D1-DOUT)*%
X212695000Y-110620000D02*
X213650000Y-109665000D01*
X210700000Y-111495000D02*
X211575000Y-110620000D01*
X211575000Y-110620000D02*
X212695000Y-110620000D01*
%TO.N,D0*%
X207325000Y-106150000D02*
X209600000Y-108425000D01*
X205935000Y-106150000D02*
X207325000Y-106150000D01*
X209600000Y-108425000D02*
X209600000Y-109665000D01*
%TO.N,Net-(D2-DOUT)*%
X215625000Y-110620000D02*
X216745000Y-110620000D01*
X214750000Y-111495000D02*
X215625000Y-110620000D01*
X216745000Y-110620000D02*
X217700000Y-109665000D01*
%TO.N,Net-(D3-DOUT)*%
X218800000Y-111495000D02*
X219675000Y-110620000D01*
X219675000Y-110620000D02*
X220795000Y-110620000D01*
X220795000Y-110620000D02*
X221750000Y-109665000D01*
%TO.N,Net-(D4-DOUT)*%
X222850000Y-111495000D02*
X223725000Y-110620000D01*
X223725000Y-110620000D02*
X224845000Y-110620000D01*
X224845000Y-110620000D02*
X225800000Y-109665000D01*
%TO.N,Net-(D5-DOUT)*%
X227022183Y-111495000D02*
X227897183Y-110620000D01*
X228895000Y-110620000D02*
X229850000Y-109665000D01*
X226900000Y-111495000D02*
X227022183Y-111495000D01*
X227897183Y-110620000D02*
X228895000Y-110620000D01*
%TO.N,Net-(D6-DOUT)*%
X231947183Y-110620000D02*
X232945000Y-110620000D01*
X232945000Y-110620000D02*
X233900000Y-109665000D01*
X230950000Y-111495000D02*
X231072183Y-111495000D01*
X231072183Y-111495000D02*
X231947183Y-110620000D01*
%TO.N,Net-(D7-DOUT)*%
X236995000Y-110620000D02*
X237950000Y-109665000D01*
X235000000Y-111495000D02*
X235875000Y-110620000D01*
X235875000Y-110620000D02*
X236995000Y-110620000D01*
%TO.N,Net-(D8-DOUT)*%
X239925000Y-110620000D02*
X241045000Y-110620000D01*
X239050000Y-111495000D02*
X239925000Y-110620000D01*
X241045000Y-110620000D02*
X242000000Y-109665000D01*
%TO.N,Net-(D10-DIN)*%
X243100000Y-111495000D02*
X243222183Y-111495000D01*
X243222183Y-111495000D02*
X244097183Y-110620000D01*
X244097183Y-110620000D02*
X245095000Y-110620000D01*
X245095000Y-110620000D02*
X246050000Y-109665000D01*
%TO.N,Net-(D10-DOUT)*%
X248025000Y-110620000D02*
X249170000Y-110620000D01*
X249170000Y-110620000D02*
X250125000Y-109665000D01*
X247150000Y-111495000D02*
X248025000Y-110620000D01*
D21*
%TO.N,Net-(D12-A2)*%
X198700000Y-113140000D02*
X202480000Y-113140000D01*
X202580000Y-114905000D02*
X202475000Y-115010000D01*
X202580000Y-111665000D02*
X202955000Y-111290000D01*
X202580000Y-113040000D02*
X202580000Y-111665000D01*
X202480000Y-113140000D02*
X202580000Y-113040000D01*
X202580000Y-113040000D02*
X202580000Y-114905000D01*
D24*
%TO.N,Net-(D13-A2)*%
X203200000Y-107900000D02*
X204185000Y-107900000D01*
X205835000Y-107900000D02*
X205935000Y-107800000D01*
X198700000Y-110600000D02*
X200500000Y-110600000D01*
X198720000Y-110620000D02*
X198700000Y-110600000D01*
X204185000Y-107900000D02*
X205835000Y-107900000D01*
X200500000Y-110600000D02*
X203200000Y-107900000D01*
D23*
%TO.N,Net-(D14-A)*%
X205710000Y-110040000D02*
X206000000Y-109750000D01*
X204775000Y-110040000D02*
X205710000Y-110040000D01*
%TD*%
M02*
