M48
; DRILL file {KiCad 7.0.7} date 2023 September 25, Monday 07:31:52
; FORMAT={-:-/ absolute / metric / decimal}
; #@! TF.CreationDate,2023-09-25T07:31:52+02:00
; #@! TF.GenerationSoftware,Kicad,Pcbnew,7.0.7
; #@! TF.FileFunction,Plated,1,2,PTH
FMAT,2
METRIC
; #@! TA.AperFunction,Plated,PTH,ViaDrill
T1C0.400
; #@! TA.AperFunction,Plated,PTH,ComponentDrill
T2C1.000
%
G90
G05
T1
X202.35Y-105.8
X202.625Y-109.725
X206.15Y-113.05
X208.112Y-108.5
X210.712Y-108.5
X212.162Y-108.5
X214.712Y-108.45
X216.212Y-108.45
X218.812Y-108.45
X220.262Y-108.45
X222.862Y-108.45
X224.362Y-108.45
X226.912Y-108.45
X228.362Y-108.45
X230.962Y-108.45
X232.412Y-108.45
X235.012Y-108.45
X236.462Y-108.45
X239.062Y-108.4
X240.512Y-108.4
X243.112Y-108.4
X244.562Y-108.4
X247.162Y-108.4
X248.662Y-108.4
X251.212Y-108.4
T2
X198.7Y-108.06
X198.7Y-110.6
X198.7Y-113.14
T0
M30
