M48
; DRILL file {KiCad 7.0.7} date 2023 September 25, Monday 23:21:04
; FORMAT={-:-/ absolute / metric / decimal}
; #@! TF.CreationDate,2023-09-25T23:21:04+02:00
; #@! TF.GenerationSoftware,Kicad,Pcbnew,7.0.7
; #@! TF.FileFunction,Plated,1,2,PTH
FMAT,2
METRIC
; #@! TA.AperFunction,Plated,PTH,ViaDrill
T1C0.400
; #@! TA.AperFunction,Plated,PTH,ComponentDrill
T2C1.000
%
G90
G05
T1
X202.05Y-109.75
X205.975Y-107.025
X206.0Y-113.7
X207.1Y-108.9
X208.95Y-108.9
X213.0Y-108.9
X215.75Y-114.5
X216.25Y-115.25
X216.75Y-114.5
X217.05Y-108.9
X217.25Y-115.25
X217.75Y-114.5
X218.25Y-115.25
X218.75Y-114.5
X221.05Y-108.9
X225.15Y-108.9
X227.75Y-114.5
X228.25Y-115.25
X228.75Y-114.5
X229.2Y-108.9
X229.25Y-115.25
X229.75Y-114.5
X230.25Y-115.25
X230.75Y-114.5
X233.25Y-108.9
X237.3Y-108.9
X240.0Y-114.5
X240.5Y-115.25
X241.0Y-114.5
X241.35Y-108.85
X241.5Y-115.25
X242.0Y-114.5
X242.5Y-115.25
X243.0Y-114.5
X245.4Y-108.9
X249.45Y-108.9
T2
X198.7Y-108.06
X198.7Y-110.6
X198.7Y-113.14
T0
M30
